<svg width="41" height="41" viewBox="0 0 41 41" fill="none" xmlns="http://www.w3.org/2000/svg">
<path d="M35.8512 33.2562L35.5103 33.6665L35.52 33.6735C35.4559 33.7442 35.3927 33.8106 35.3255 33.8813C35.2755 33.9338 35.2233 33.9886 35.1668 34.0494L35.1652 34.0511C34.7635 34.4873 34.3525 34.9024 33.9235 35.2931C33.8339 35.3739 33.745 35.4496 33.6505 35.5301C33.6093 35.5652 33.567 35.6012 33.5232 35.6389L33.5227 35.6394C33.1067 35.9981 32.6793 36.3389 32.2403 36.6607L31.9246 36.8829C28.5797 39.2367 24.5894 40.5 20.4993 40.5C16.4092 40.5 12.4189 39.2367 9.074 36.8829L8.737 36.6457C8.30565 36.33 7.88634 35.9933 7.47592 35.6394L7.47542 35.6389C7.42842 35.5985 7.3839 35.5607 7.34094 35.5243C7.2487 35.4461 7.16364 35.3739 7.07653 35.2944L7.07537 35.2934C6.64681 34.9045 6.23584 34.4881 5.83338 34.0511L5.83174 34.0494C5.77425 33.9875 5.72167 33.9325 5.67179 33.8803C5.59478 33.7996 5.52418 33.7257 5.45177 33.6439L5.46224 33.635L5.14294 33.2544C2.14488 29.6809 0.501086 25.1656 0.500008 20.501L0.500008 20.5007C0.497197 17.2914 1.26739 14.1286 2.74542 11.28C4.22345 8.43128 6.36585 5.98049 8.99138 4.13491C11.6169 2.28933 14.6483 1.10326 17.8292 0.677029C21.01 0.250798 24.2468 0.596947 27.2656 1.68619C30.2844 2.77544 32.9964 4.57574 35.1723 6.9348C37.3481 9.29386 38.9238 12.1423 39.766 15.2391C40.6082 18.3359 40.6921 21.59 40.0107 24.7261C39.3293 27.8622 37.9026 30.7881 35.8512 33.2562ZM5.06876 33.9392L5.05565 33.9506L5.43287 33.6224C5.43263 33.6222 5.4324 33.6219 5.43217 33.6216L5.06876 33.9392ZM8.29508 33.5692L8.29209 33.7956L8.46032 33.9472C11.7632 36.9236 16.0517 38.5708 20.4978 38.5708C24.944 38.5708 29.2324 36.9236 32.5353 33.9472L32.7036 33.7956L32.7006 33.5692C32.6734 31.5153 31.8388 29.5547 30.3772 28.1116C28.9156 26.6684 26.9445 25.8587 24.8905 25.8576H24.8902H16.1054H16.1052C14.0511 25.8587 12.0801 26.6684 10.6185 28.1116C9.15688 29.5547 8.32222 31.5153 8.29508 33.5692ZM24.436 9.48273C23.2703 8.70382 21.8998 8.28808 20.4978 8.28808C18.6178 8.28808 16.8148 9.03492 15.4854 10.3643C14.1561 11.6937 13.4092 13.4967 13.4092 15.3767C13.4092 16.7787 13.825 18.1492 14.6039 19.3149C15.3828 20.4806 16.4899 21.3892 17.7851 21.9257C19.0804 22.4622 20.5057 22.6026 21.8807 22.3291C23.2558 22.0555 24.5189 21.3804 25.5102 20.3891C26.5016 19.3977 27.1767 18.1346 27.4502 16.7596C27.7237 15.3845 27.5833 13.9593 27.0468 12.664C26.5103 11.3687 25.6018 10.2616 24.436 9.48273Z" fill="white" stroke="black"/>
</svg>
